<?xml version="1.0" standalone="yes"?>
<svg xmlns="http://www.w3.org/2000/svg" width="1567" height="566">
<path style="fill:#ffffff; stroke:none;" d="M0 0L0 566L1567 566L1567 0L0 0z"/>
<path style="fill:#ff950b; stroke:none;" d="M1281 50.4244C1254.72 53.8858 1229.76 60.226 1207 74.4251C1133.34 120.37 1118 234.312 1174.3 300C1211.67 343.599 1272.28 360.382 1328 353.715C1351.34 350.922 1373.41 344.028 1394 332.694C1477.58 286.693 1487.61 165.501 1425.83 98.0038C1391.33 60.312 1330.81 43.8656 1281 50.4244z"/>
<path style="fill:#c91997; stroke:none;" d="M527 56L528 67C547.163 67.8229 560.406 73.802 563.561 94C566.794 114.696 565 137.069 565 158C565 187.925 566 217.996 566 248C566 273.093 570.627 303.8 563.061 328C559.29 340.062 542.583 340.971 532 341L531 353L652 353L651 341C642.663 340.977 630.747 340.567 624.343 334.468C619.762 330.104 619.482 322.874 618.718 317C616.834 302.501 617 287.62 617 273L617 52L527 56M124 61C124.398 80.2668 142.595 69.6644 153.895 79.3935C162.842 87.0964 162.719 106.111 162.985 117C163.972 157.279 163 197.707 163 238C163 263.543 165.522 290.852 160.334 316C158.769 323.588 156.561 329.843 148.999 333.12C137.849 337.95 124.67 332.437 124 348L256 348L255 337C244.87 336.916 230.506 336.203 223.394 327.895C215.924 319.168 216.018 300.904 216 290C215.956 262.647 215 235.389 215 208L230 208C236.968 262.846 262.203 314.455 311 343.547C324.199 351.416 338.339 357.418 353 361.975C362.237 364.845 369.457 367.72 374 357C316.787 337.518 287.369 262.354 283 207L260 207C283.455 199.583 305.696 196.648 323.961 177.985C355.382 145.879 345.088 91.5753 305 72.7816C279.787 60.9617 250.221 61 223 61L124 61M727 64.5293C695.053 71.902 707.47 122.545 739 115.319C772.921 107.546 761.007 56.6812 727 64.5293M1065 64.5293C1031.85 72.1382 1045.7 122.968 1078 114.957C1110.74 106.838 1097.97 56.9612 1065 64.5293z"/>
<path style="fill:#ffffff; stroke:none;" d="M1297 64.4283C1267.12 68.7068 1248.56 93.509 1238 120C1218.29 169.423 1218.91 229.006 1236 279C1246.18 308.756 1273.29 345.097 1309 340.714C1339.53 336.967 1358.15 310.962 1368.32 284C1387.06 234.291 1388.66 174.168 1370.41 124C1359.38 93.6708 1333.8 59.1582 1297 64.4283M215 71L215 198C231.803 198 250.493 200.601 265 190.211C294.278 169.244 297.504 106.116 269.961 82.4645C254.519 69.2054 233.997 71 215 71z"/>
<path style="fill:#c91997; stroke:none;" d="M985 130C981.904 147.358 963.679 154.516 948 155.826C938.165 156.649 927.898 151.768 918 151.09C890.736 149.221 863.002 153.087 840 168.746C805.891 191.966 797.179 257.375 843 275L843 277C817.611 284.328 801.562 310.286 819.518 332.999C822.637 336.945 827.091 341.488 832 343.117C840.267 345.859 855.977 337.61 864 335L864 336C846.198 341.793 824.775 345.106 810 357.329C785.784 377.362 802.485 404.375 827 413.305C869.353 428.732 925.867 424.882 967 407.28C996.87 394.498 1023.72 356.859 993.96 328.093C985.234 319.659 973.373 316.227 962 313L962 312C987.192 300.082 1004 273.463 1004 246L995 246C994.787 271.729 968.158 303.449 943 309.582C938.069 310.784 932.955 309.136 928 309.015C916.681 308.737 905.323 309 894 309C880.951 309 867.919 310.582 855 307.789C849.997 306.707 843.445 304.613 841.917 298.996C839.886 291.534 851.04 281.789 858 283.34C896.108 291.831 940.165 297.718 974 272.1C1007.06 247.068 1006.56 184.571 965 167L965 166L995 166C995 153.627 999.647 134.678 985 130M671 154L672 166C683.011 166 694.985 165.778 701.892 176.015C709.799 187.733 708.995 205.464 709 219C709.009 242.258 710 265.662 710 289C710 300.045 711.051 317.306 704.995 326.985C699.366 335.98 685.571 336.802 676 337L674 348L795 348C793.426 328.082 768.021 342.316 763.429 323C758.645 302.879 761 280.54 761 260L761 150L671 154M1009 154L1010 166C1018.44 166 1028.13 165.385 1034.99 171.225C1045.05 179.801 1045.26 192.871 1046.09 205C1047.8 229.922 1048 254.981 1048 280C1048 293.173 1050.2 316.715 1042.3 327.957C1036.57 336.114 1023.07 336.813 1014 337L1012 348L1133 348L1131 337C1121.97 336.814 1107.04 336.178 1102.31 326.985C1094.84 312.446 1098 286.965 1098 271L1098 150L1009 154M398 254L521 254C521 226.787 515.313 197.89 494.961 178.09C463.661 147.638 407.628 149.368 376.004 178.171C360.42 192.364 351.309 213.592 347.46 234C336.939 289.785 364.071 349.504 425 357.711C463.695 362.924 527.491 339.037 517.772 289.044C516.989 285.021 511.986 282.395 509.179 286.434C507.384 289.017 507.881 293.052 506.895 296C504.677 302.63 500.798 309.522 496.482 315C480.648 335.096 448.457 338.002 426 328.123C398.037 315.823 398 279.853 398 254z"/>
<path style="fill:#ffffff; stroke:none;" d="M899 160.439C860.239 166.543 861.419 226.642 870.671 255C876.289 272.218 889.318 283.393 908 280.7C921.661 278.73 931.366 268.343 936.395 256C948.711 225.775 947.758 152.761 899 160.439M429 166.638C408.085 172.65 402.9 203.841 399.92 222C399.088 227.068 395.464 239.257 399.603 243.397C402.744 246.537 410.938 245 415 245C429.354 245 449.105 248.573 462.891 244.682C470.197 242.62 466.312 225.539 465.576 220C463.112 201.46 457.319 158.499 429 166.638M855 351.843C832.926 360.242 839.178 391.617 855.001 402.25C876.205 416.5 913.348 414.866 936 405.127C953.75 397.496 964.685 369.825 943.996 358.313C925.239 347.876 899.644 351 879 351C871.773 351 861.822 349.248 855 351.843z"/>
<path style="fill:#010101; stroke:none;" d="M1205 476L1197 476L1197 483L1205 483L1205 526L1214 526L1214 483L1227 483L1227 476L1214 476C1215.89 465.871 1217.73 457.757 1230 460C1232.68 448.572 1219.35 448.33 1212.04 453.653C1204.67 459.03 1205 467.852 1205 476M101 526L110 526L110 498C129.525 502.649 154.903 485.569 141.517 464.04C135.315 454.065 123.202 454.999 113 455C109.773 455 103.399 453.895 101.603 457.434C99.1697 462.229 101 471.692 101 477L101 526M295.228 457.029C288.565 461.057 295.358 470.922 301.682 466.817C307.568 462.997 301.722 453.102 295.228 457.029M1051 463L1051 476L1043 476L1043 483L1051 483C1051 493.543 1047.56 511.496 1052.46 520.985C1057.52 530.797 1072.96 529.598 1073 518C1055.11 521.259 1060 494.416 1060 483L1074 483L1074 476L1060 476L1060 461L1051 463M1237 463L1237 476L1229 476L1229 483L1237 483C1237 493.543 1233.56 511.496 1238.46 520.985C1243.52 530.797 1258.96 529.598 1259 518C1241.11 521.259 1246 494.416 1246 483L1260 483L1260 476L1246 476L1246 461L1237 463z"/>
<path style="fill:#ffffff; stroke:none;" d="M110 463L110 490C116.299 490.113 123.451 491.229 128.945 487.297C136.78 481.69 135.364 468.7 126.996 464.457C122.052 461.95 115.378 463 110 463z"/>
<path style="fill:#010101; stroke:none;" d="M163 484L162 484L162 476L153 476L154 526L163 526C163 511.768 158.558 485.063 179 484C178.99 470.872 166.608 473.481 163 484M207 474.468C174.814 477.677 176.643 529.985 210 527.482C243.247 524.987 240.817 471.095 207 474.468M1102 516L1100 524C1113.24 530.938 1139.14 527.284 1133.57 507.001C1130.81 496.983 1118.77 498.73 1113.62 491.66C1109.29 485.707 1118.47 482.246 1123 483.079C1125.71 483.578 1128.28 484.539 1131 485L1133 477C1120.81 473.136 1093 476.064 1103.46 495.96C1107.5 503.649 1117.56 502.883 1122.52 509.213C1125.67 513.231 1122.1 517.664 1118 519.067C1112.86 520.822 1106.88 517.332 1102 516M1165 474.468C1132.81 477.677 1134.64 529.985 1168 527.482C1201.25 524.987 1198.82 471.095 1165 474.468M1406 484L1405 484L1405 476L1396 476L1397 526L1406 526C1406 511.768 1401.56 485.063 1422 484C1421.99 470.872 1409.61 473.481 1406 484M327 483L326 483L326 476L317 476L317 526L327 526C327 515.855 324.401 501.42 328.653 492C330.639 487.6 335.709 482.54 341 483.528C355.774 486.285 351 515.507 351 526L361 526C361 513.385 364.463 494.342 357.91 483.004C351.753 472.35 332.605 471.538 327 483M411 517C404.573 517.945 398.338 520.467 392.001 517.427C379.548 511.454 378.886 493.293 390.015 485.703C396.289 481.424 403.257 483.459 410 485C414.673 473.841 403.044 474.674 395 475.039C384.55 475.514 374.949 482.531 372.529 493C369.732 505.106 372.866 519.64 385 525.095C394.216 529.238 412.612 530.083 411 517M459 517C443.863 519.225 432.059 520.779 427 503L463 503C463 496.4 463.294 489.897 459.775 484.001C452.12 471.173 432.275 472.276 423.34 483.015C417.874 489.586 417.644 497.858 418.04 506C418.667 518.884 428.548 526.843 441 526.996C449.793 527.104 461.15 528.772 459 517M506 483L505 483L505 476L496 476L497 526L506 526C506 515.465 503.8 501.993 507.664 492.004C509.415 487.475 514.598 482.004 519.985 483.786C532.511 487.931 528 516.026 528 526L537 526C537 515.667 534.998 502.914 538.225 493C539.786 488.204 544.261 482.54 550 483.539C564.588 486.077 560 515.76 560 526L569 526C569 509.868 574.495 463.676 544 476.009C540.239 477.53 537.291 480.711 534 483C528.817 471.987 511.27 471.965 506 483M584 486C595.442 482.737 604.818 479.721 609 494C601.337 494 593.941 493.813 587.004 497.649C577.055 503.15 574.45 518.652 585.015 525.142C592.937 530.007 603.548 526.301 610 521L610 526L619 526C619 514.302 622.115 488.257 613.468 479.529C606.534 472.532 578.799 471.294 584 486M643 483L642 483L642 476L633 476L633 526L643 526C643 515.855 640.401 501.42 644.653 492C646.639 487.6 651.709 482.54 657 483.528C671.774 486.285 667 515.507 667 526L677 526C677 513.385 680.463 494.342 673.911 483.004C667.753 472.35 648.605 471.538 643 483M692 486C703.442 482.737 712.818 479.721 717 494C709.337 494 701.941 493.813 695.004 497.649C685.055 503.15 682.45 518.652 693.015 525.142C700.937 530.007 711.548 526.301 718 521L718 526L727 526C727 514.302 730.115 488.257 721.468 479.529C714.534 472.532 686.799 471.294 692 486M775 519L776 519C775.112 539.629 760.854 542.502 744 536C738.232 554.229 771.907 549.89 779.775 540.957C785.466 534.496 785 526.028 785 518C785 503.961 786 489.983 786 476L777 476L777 482C772.619 477.427 768.421 475.081 762 475.004C739.303 474.732 728.826 505.523 745.043 520.892C752.505 527.963 769.515 528.998 775 519M837 517C821.864 519.225 810.059 520.779 805 503L841 503C841 496.4 841.294 489.897 837.775 484.001C830.12 471.173 810.275 472.276 801.34 483.015C795.874 489.586 795.644 497.858 796.04 506C796.667 518.884 806.548 526.843 819 526.996C827.793 527.104 839.15 528.772 837 517M861 483L860 483L860 476L851 476L852 526L861 526C861 515.465 858.8 501.993 862.664 492.004C864.415 487.475 869.598 482.004 874.985 483.786C887.511 487.931 883 516.026 883 526L892 526C892 515.667 889.998 502.914 893.225 493C894.786 488.204 899.261 482.54 905 483.539C919.588 486.077 915 515.76 915 526L924 526C924 509.868 929.495 463.676 899 476.009C895.239 477.53 892.291 480.711 889 483C883.817 471.986 866.27 471.965 861 483M976 517C960.864 519.225 949.059 520.779 944 503L980 503C980 496.4 980.294 489.897 976.775 484.001C969.12 471.174 949.275 472.276 940.34 483.015C934.874 489.586 934.644 497.858 935.04 506C935.667 518.884 945.548 526.843 958 526.996C966.793 527.104 978.15 528.772 976 517M1000 483L999 483L999 476L990 476L990 526L1000 526C1000 515.855 997.401 501.42 1001.65 492C1003.64 487.6 1008.71 482.54 1014 483.528C1028.77 486.285 1024 515.507 1024 526L1034 526C1034 513.385 1037.46 494.342 1030.91 483.004C1024.75 472.35 1005.6 471.538 1000 483M1348 486C1359.44 482.737 1368.82 479.721 1373 494C1365.34 494 1357.94 493.813 1351 497.649C1341.05 503.15 1338.45 518.652 1349.02 525.142C1356.94 530.007 1367.55 526.301 1374 521L1374 526L1383 526C1383 514.302 1386.12 488.258 1377.47 479.529C1370.53 472.531 1342.8 471.294 1348 486M1467 517C1451.86 519.225 1440.06 520.779 1435 503L1471 503C1471 496.4 1471.29 489.897 1467.78 484.001C1460.12 471.174 1440.28 472.276 1431.34 483.015C1425.87 489.586 1425.64 497.858 1426.04 506C1426.67 518.884 1436.55 526.843 1449 526.996C1457.79 527.104 1469.15 528.772 1467 517M237 476C239.923 488.63 246.004 500.878 250.576 513C252.104 517.049 253.315 524.346 258.108 525.682C265.697 527.798 267.702 521.746 270 516C275.056 503.361 282.98 489.486 285 476C267.585 476.002 266.982 500.505 261 514L251.692 487L247.298 477.028L237 476M293 476L293 526L303 526L303 476L293 476M1264 476L1279 526C1295.52 525.998 1296.73 503.361 1301 490L1302 490L1309.33 516L1313.51 524.972L1323 526L1338 476L1328 476L1318 514L1317 514C1316.08 503.452 1311.8 488.562 1306.89 479.148C1305.3 476.101 1301.41 475.156 1298.28 476.603C1295.05 478.095 1294.62 482.992 1293.66 486C1290.68 495.303 1287.19 504.466 1285 514L1284 514L1275 476L1264 476z"/>
<path style="fill:#ffffff; stroke:none;" d="M207 482.62C188.054 485.602 190.188 521.893 210 519.427C229.39 517.015 227.053 479.463 207 482.62M427 496L454 496C449.33 478.146 432.859 478.826 427 496M805 496L832 496C827.33 478.146 810.859 478.826 805 496M944 496L971 496C966.33 478.146 949.859 478.826 944 496M1165 482.62C1146.05 485.602 1148.19 521.893 1168 519.427C1187.39 517.015 1185.05 479.463 1165 482.62M1435 496L1462 496C1457.33 478.146 1440.86 478.826 1435 496M758.001 483.653C740.426 489.185 746.79 524.31 766.985 517.297C782.999 511.736 777.21 477.606 758.001 483.653M609 501C605.687 501 602.252 500.777 599 501.529C575.129 507.048 601.519 532.179 608.196 510.999C609.208 507.789 608.998 504.322 609 501M717 501C713.687 501 710.252 500.777 707 501.529C683.129 507.048 709.519 532.179 716.196 510.999C717.208 507.789 716.998 504.322 717 501M1373 501C1369.69 501 1366.25 500.777 1363 501.529C1339.13 507.049 1365.52 532.179 1372.2 510.999C1373.21 507.789 1373 504.322 1373 501z"/>
</svg>
